<svg aria-hidden="true" style="position: absolute; width: 0; height: 0; overflow: hidden;" version="1.1" xmlns="http://www.w3.org/2000/svg" xmlns:xlink="http://www.w3.org/1999/xlink">
<defs>
<symbol id="icon-ico-shape" viewBox="0 0 68 32">
<path d="M3.325 16c0-0.982 0.796-1.778 1.778-1.778h56.889c0.982 0 1.778 0.796 1.778 1.778s-0.796 1.778-1.778 1.778h-56.889c-0.982 0-1.778-0.796-1.778-1.778z"></path>
<path d="M48.291 2.298c0.694-0.694 1.82-0.694 2.514 0l13.701 13.702-13.701 13.701c-0.694 0.694-1.82 0.694-2.514 0s-0.694-1.82 0-2.514l11.187-11.187-11.187-11.187c-0.694-0.694-0.694-1.82 0-2.514z"></path>
</symbol>
<symbol id="icon-ico-shape-1" viewBox="0 0 64 32">
<path d="M64 16c0-0.982-0.796-1.778-1.778-1.778h-56.889c-0.982 0-1.778 0.796-1.778 1.778s0.796 1.778 1.778 1.778h56.889c0.982 0 1.778-0.796 1.778-1.778z"></path>
<path d="M19.035 2.298c-0.694-0.694-1.82-0.694-2.514 0l-13.702 13.702 13.702 13.701c0.694 0.694 1.82 0.694 2.514 0s0.694-1.82 0-2.514l-11.187-11.187 11.187-11.187c0.694-0.694 0.694-1.82 0-2.514z"></path>
</symbol>
</defs>
</svg>
