<svg aria-hidden="true" style="position: absolute; width: 0; height: 0; overflow: hidden;" version="1.1" xmlns="http://www.w3.org/2000/svg" xmlns:xlink="http://www.w3.org/1999/xlink">
<defs>
<symbol id="icon-main-logo" viewBox="0 0 51 32">
<path d="M33.189 15.348l0.93 2.146c0.172 0.395 0.645 0.583 1.058 0.418 0.414-0.163 0.61-0.616 0.438-1.011l-0.93-2.145-1.496 0.592z"></path>
<path d="M33.809 16.779v0z"></path>
<path d="M31.227 10.82v0z"></path>
<path d="M32.378 6.47c0 1.14-0.966 2.064-2.158 2.064-1.193 0-2.16-0.924-2.16-2.064s0.967-2.064 2.16-2.064c1.191 0 2.158 0.924 2.158 2.064z"></path>
<path d="M31.299 6.47c0 0.57-0.483 1.033-1.079 1.033s-1.081-0.462-1.081-1.033c0-0.57 0.484-1.032 1.081-1.032s1.079 0.462 1.079 1.032z"></path>
<path d="M28.706 7.942l-2.953 6.815-0.74 3.058 0.499 0.197 1.738-2.663 0.414-0.953c-0.323-0.745 0.047-1.6 0.826-1.908l1.712-3.954c-0.582-0.005-1.109-0.23-1.496-0.592z"></path>
<path d="M31.733 7.941c-0.386 0.363-0.914 0.588-1.496 0.593l2.54 5.861 1.496-0.592-2.54-5.861z"></path>
<path d="M31.029 3.374v-2.322c-0-0.428-0.364-0.774-0.81-0.774-0.447 0-0.81 0.346-0.81 0.774l0 2.322h1.619z"></path>
<path d="M30.22 4.407c0.138 0 0.273 0.013 0.404 0.037v-1.069h-0.809v1.069c0.131-0.024 0.266-0.037 0.405-0.037z"></path>
<path d="M18.979 18.866h-2.693v-18.589h2.693c0.595 0 1.077 0.463 1.077 1.033v16.524h-0c-0 0.57-0.482 1.032-1.077 1.032z"></path>
<path d="M18.844 1.826c0.223 0 0.404-0.173 0.404-0.387s-0.181-0.387-0.404-0.387c-0.223 0-0.404 0.173-0.404 0.387s0.181 0.387 0.404 0.387z"></path>
<path d="M21.941 11.251c0 0.213 0.181 0.387 0.404 0.387s0.404-0.174 0.404-0.387c0 0.213 0.181 0.387 0.404 0.387s0.404-0.174 0.404-0.387c0 0.213-0.181 0.387-0.404 0.387s-0.404-0.174-0.404-0.387c0 0.213-0.181 0.387-0.404 0.387s-0.404-0.174-0.404-0.387z"></path>
<path d="M22.48 0.277c-0.297 0-0.539 0.232-0.539 0.517v-0 10.844l0.808 3.098 0.808-3.098v-10.844c0-0.285-0.241-0.517-0.539-0.517l-0.538-0z"></path>
<path d="M49.856 22.84h-49.856v9.056h49.856v-9.056z"></path>
</symbol>
</defs>
</svg>
